<mxfile host="app.diagrams.net" modified="2024-06-02T14:24:36.604Z" agent="Mozilla/5.0 (Windows NT 10.0; Win64; x64) AppleWebKit/537.36 (KHTML, like Gecko) Chrome/125.0.0.0 Safari/537.36" etag="thfaTNDhwxSPUkZBCJNo" version="24.4.13" type="onedrive">
  <diagram name="Seite-1" id="K9MN-Z7uVLECxKtXdOkO">
    <mxGraphModel dx="1674" dy="738" grid="1" gridSize="10" guides="1" tooltips="1" connect="1" arrows="1" fold="1" page="1" pageScale="1" pageWidth="827" pageHeight="1169" math="0" shadow="0">
      <root>
        <mxCell id="0" />
        <mxCell id="1" parent="0" />
        <mxCell id="ZRyV5L0JtbCJQ0honvGS-4" value="CliComponent" style="swimlane;fontStyle=2;align=center;verticalAlign=top;childLayout=stackLayout;horizontal=1;startSize=26;horizontalStack=0;resizeParent=1;resizeLast=0;collapsible=1;marginBottom=0;rounded=0;shadow=0;strokeWidth=1;" vertex="1" parent="1">
          <mxGeometry x="670" y="480" width="160" height="64" as="geometry">
            <mxRectangle x="230" y="140" width="160" height="26" as="alternateBounds" />
          </mxGeometry>
        </mxCell>
        <mxCell id="ZRyV5L0JtbCJQ0honvGS-5" value="" style="line;html=1;strokeWidth=1;align=left;verticalAlign=middle;spacingTop=-1;spacingLeft=3;spacingRight=3;rotatable=0;labelPosition=right;points=[];portConstraint=eastwest;" vertex="1" parent="ZRyV5L0JtbCJQ0honvGS-4">
          <mxGeometry y="26" width="160" height="8" as="geometry" />
        </mxCell>
        <mxCell id="ZRyV5L0JtbCJQ0honvGS-6" value="public abstract void exec()" style="text;align=left;verticalAlign=top;spacingLeft=4;spacingRight=4;overflow=hidden;rotatable=0;points=[[0,0.5],[1,0.5]];portConstraint=eastwest;" vertex="1" parent="ZRyV5L0JtbCJQ0honvGS-4">
          <mxGeometry y="34" width="160" height="26" as="geometry" />
        </mxCell>
        <mxCell id="ZRyV5L0JtbCJQ0honvGS-7" value="AbteilungAnzeigenView" style="swimlane;fontStyle=2;align=center;verticalAlign=top;childLayout=stackLayout;horizontal=1;startSize=26;horizontalStack=0;resizeParent=1;resizeLast=0;collapsible=1;marginBottom=0;rounded=0;shadow=0;strokeWidth=1;" vertex="1" parent="1">
          <mxGeometry x="340" y="160" width="190" height="60" as="geometry">
            <mxRectangle x="230" y="140" width="160" height="26" as="alternateBounds" />
          </mxGeometry>
        </mxCell>
        <mxCell id="ZRyV5L0JtbCJQ0honvGS-8" value="ausgewaehlteAbteilung: Abteilung" style="text;align=left;verticalAlign=top;spacingLeft=4;spacingRight=4;overflow=hidden;rotatable=0;points=[[0,0.5],[1,0.5]];portConstraint=eastwest;" vertex="1" parent="ZRyV5L0JtbCJQ0honvGS-7">
          <mxGeometry y="26" width="190" height="26" as="geometry" />
        </mxCell>
        <mxCell id="ZRyV5L0JtbCJQ0honvGS-9" value="" style="line;html=1;strokeWidth=1;align=left;verticalAlign=middle;spacingTop=-1;spacingLeft=3;spacingRight=3;rotatable=0;labelPosition=right;points=[];portConstraint=eastwest;" vertex="1" parent="ZRyV5L0JtbCJQ0honvGS-7">
          <mxGeometry y="52" width="190" height="8" as="geometry" />
        </mxCell>
        <mxCell id="ZRyV5L0JtbCJQ0honvGS-56" style="edgeStyle=orthogonalEdgeStyle;rounded=0;orthogonalLoop=1;jettySize=auto;html=1;" edge="1" parent="1" source="ZRyV5L0JtbCJQ0honvGS-10" target="ZRyV5L0JtbCJQ0honvGS-4">
          <mxGeometry relative="1" as="geometry" />
        </mxCell>
        <mxCell id="ZRyV5L0JtbCJQ0honvGS-10" value="AbteilungAuflistenView" style="swimlane;fontStyle=2;align=center;verticalAlign=top;childLayout=stackLayout;horizontal=1;startSize=26;horizontalStack=0;resizeParent=1;resizeLast=0;collapsible=1;marginBottom=0;rounded=0;shadow=0;strokeWidth=1;" vertex="1" parent="1">
          <mxGeometry x="612" y="70" width="276" height="112" as="geometry">
            <mxRectangle x="230" y="140" width="160" height="26" as="alternateBounds" />
          </mxGeometry>
        </mxCell>
        <mxCell id="ZRyV5L0JtbCJQ0honvGS-11" value="abteilungAnzeigeView: AbteilungAnzeigenView" style="text;align=left;verticalAlign=top;spacingLeft=4;spacingRight=4;overflow=hidden;rotatable=0;points=[[0,0.5],[1,0.5]];portConstraint=eastwest;" vertex="1" parent="ZRyV5L0JtbCJQ0honvGS-10">
          <mxGeometry y="26" width="276" height="26" as="geometry" />
        </mxCell>
        <mxCell id="ZRyV5L0JtbCJQ0honvGS-12" value="abteilungBearbeiteView: AbteilungBearbeitenView" style="text;align=left;verticalAlign=top;spacingLeft=4;spacingRight=4;overflow=hidden;rotatable=0;points=[[0,0.5],[1,0.5]];portConstraint=eastwest;rounded=0;shadow=0;html=0;" vertex="1" parent="ZRyV5L0JtbCJQ0honvGS-10">
          <mxGeometry y="52" width="276" height="26" as="geometry" />
        </mxCell>
        <mxCell id="ZRyV5L0JtbCJQ0honvGS-13" value="abteilungAuflistenMenu: AbteilungAuflistenMenu" style="text;align=left;verticalAlign=top;spacingLeft=4;spacingRight=4;overflow=hidden;rotatable=0;points=[[0,0.5],[1,0.5]];portConstraint=eastwest;rounded=0;shadow=0;html=0;" vertex="1" parent="ZRyV5L0JtbCJQ0honvGS-10">
          <mxGeometry y="78" width="276" height="26" as="geometry" />
        </mxCell>
        <mxCell id="ZRyV5L0JtbCJQ0honvGS-14" value="" style="line;html=1;strokeWidth=1;align=left;verticalAlign=middle;spacingTop=-1;spacingLeft=3;spacingRight=3;rotatable=0;labelPosition=right;points=[];portConstraint=eastwest;" vertex="1" parent="ZRyV5L0JtbCJQ0honvGS-10">
          <mxGeometry y="104" width="276" height="8" as="geometry" />
        </mxCell>
        <mxCell id="ZRyV5L0JtbCJQ0honvGS-15" value="AbteilungBearbeitenView" style="swimlane;fontStyle=2;align=center;verticalAlign=top;childLayout=stackLayout;horizontal=1;startSize=26;horizontalStack=0;resizeParent=1;resizeLast=0;collapsible=1;marginBottom=0;rounded=0;shadow=0;strokeWidth=1;" vertex="1" parent="1">
          <mxGeometry x="319" y="680" width="190" height="60" as="geometry">
            <mxRectangle x="230" y="140" width="160" height="26" as="alternateBounds" />
          </mxGeometry>
        </mxCell>
        <mxCell id="ZRyV5L0JtbCJQ0honvGS-16" value="ausgewaehlteAbteilung: Abteilung" style="text;align=left;verticalAlign=top;spacingLeft=4;spacingRight=4;overflow=hidden;rotatable=0;points=[[0,0.5],[1,0.5]];portConstraint=eastwest;" vertex="1" parent="ZRyV5L0JtbCJQ0honvGS-15">
          <mxGeometry y="26" width="190" height="26" as="geometry" />
        </mxCell>
        <mxCell id="ZRyV5L0JtbCJQ0honvGS-17" value="" style="line;html=1;strokeWidth=1;align=left;verticalAlign=middle;spacingTop=-1;spacingLeft=3;spacingRight=3;rotatable=0;labelPosition=right;points=[];portConstraint=eastwest;" vertex="1" parent="ZRyV5L0JtbCJQ0honvGS-15">
          <mxGeometry y="52" width="190" height="8" as="geometry" />
        </mxCell>
        <mxCell id="ZRyV5L0JtbCJQ0honvGS-18" value="AbteilungErstellenView" style="swimlane;fontStyle=2;align=center;verticalAlign=top;childLayout=stackLayout;horizontal=1;startSize=26;horizontalStack=0;resizeParent=1;resizeLast=0;collapsible=1;marginBottom=0;rounded=0;shadow=0;strokeWidth=1;" vertex="1" parent="1">
          <mxGeometry x="960" y="170" width="220" height="60" as="geometry">
            <mxRectangle x="230" y="140" width="160" height="26" as="alternateBounds" />
          </mxGeometry>
        </mxCell>
        <mxCell id="ZRyV5L0JtbCJQ0honvGS-19" value="" style="line;html=1;strokeWidth=1;align=left;verticalAlign=middle;spacingTop=-1;spacingLeft=3;spacingRight=3;rotatable=0;labelPosition=right;points=[];portConstraint=eastwest;" vertex="1" parent="ZRyV5L0JtbCJQ0honvGS-18">
          <mxGeometry y="26" width="220" height="8" as="geometry" />
        </mxCell>
        <mxCell id="ZRyV5L0JtbCJQ0honvGS-20" value="private String boolToHumanReadable()" style="text;align=left;verticalAlign=top;spacingLeft=4;spacingRight=4;overflow=hidden;rotatable=0;points=[[0,0.5],[1,0.5]];portConstraint=eastwest;" vertex="1" parent="ZRyV5L0JtbCJQ0honvGS-18">
          <mxGeometry y="34" width="220" height="26" as="geometry" />
        </mxCell>
        <mxCell id="ZRyV5L0JtbCJQ0honvGS-21" value="AbteilungMenuView" style="swimlane;fontStyle=2;align=center;verticalAlign=top;childLayout=stackLayout;horizontal=1;startSize=26;horizontalStack=0;resizeParent=1;resizeLast=0;collapsible=1;marginBottom=0;rounded=0;shadow=0;strokeWidth=1;" vertex="1" parent="1">
          <mxGeometry x="1020.5" y="544" width="219" height="112" as="geometry">
            <mxRectangle x="230" y="140" width="160" height="26" as="alternateBounds" />
          </mxGeometry>
        </mxCell>
        <mxCell id="ZRyV5L0JtbCJQ0honvGS-22" value="auflistenView: AbteilungAuflistenView" style="text;align=left;verticalAlign=top;spacingLeft=4;spacingRight=4;overflow=hidden;rotatable=0;points=[[0,0.5],[1,0.5]];portConstraint=eastwest;" vertex="1" parent="ZRyV5L0JtbCJQ0honvGS-21">
          <mxGeometry y="26" width="219" height="26" as="geometry" />
        </mxCell>
        <mxCell id="ZRyV5L0JtbCJQ0honvGS-23" value="erstellenView: AbteilungErstellenView" style="text;align=left;verticalAlign=top;spacingLeft=4;spacingRight=4;overflow=hidden;rotatable=0;points=[[0,0.5],[1,0.5]];portConstraint=eastwest;rounded=0;shadow=0;html=0;" vertex="1" parent="ZRyV5L0JtbCJQ0honvGS-21">
          <mxGeometry y="52" width="219" height="26" as="geometry" />
        </mxCell>
        <mxCell id="ZRyV5L0JtbCJQ0honvGS-24" value="menues: AbteilungMenu" style="text;align=left;verticalAlign=top;spacingLeft=4;spacingRight=4;overflow=hidden;rotatable=0;points=[[0,0.5],[1,0.5]];portConstraint=eastwest;rounded=0;shadow=0;html=0;" vertex="1" parent="ZRyV5L0JtbCJQ0honvGS-21">
          <mxGeometry y="78" width="219" height="26" as="geometry" />
        </mxCell>
        <mxCell id="ZRyV5L0JtbCJQ0honvGS-25" value="" style="line;html=1;strokeWidth=1;align=left;verticalAlign=middle;spacingTop=-1;spacingLeft=3;spacingRight=3;rotatable=0;labelPosition=right;points=[];portConstraint=eastwest;" vertex="1" parent="ZRyV5L0JtbCJQ0honvGS-21">
          <mxGeometry y="104" width="219" height="8" as="geometry" />
        </mxCell>
        <mxCell id="ZRyV5L0JtbCJQ0honvGS-26" value="MitarbeiterAuflistenView" style="swimlane;fontStyle=2;align=center;verticalAlign=top;childLayout=stackLayout;horizontal=1;startSize=26;horizontalStack=0;resizeParent=1;resizeLast=0;collapsible=1;marginBottom=0;rounded=0;shadow=0;strokeWidth=1;" vertex="1" parent="1">
          <mxGeometry x="160" y="290" width="300" height="112" as="geometry">
            <mxRectangle x="230" y="140" width="160" height="26" as="alternateBounds" />
          </mxGeometry>
        </mxCell>
        <mxCell id="ZRyV5L0JtbCJQ0honvGS-27" value="mitarbeiterAnzeigeView: MitarbeiterAnzeigenView" style="text;align=left;verticalAlign=top;spacingLeft=4;spacingRight=4;overflow=hidden;rotatable=0;points=[[0,0.5],[1,0.5]];portConstraint=eastwest;" vertex="1" parent="ZRyV5L0JtbCJQ0honvGS-26">
          <mxGeometry y="26" width="300" height="26" as="geometry" />
        </mxCell>
        <mxCell id="ZRyV5L0JtbCJQ0honvGS-28" value="mitarbeiterBearbeiteView: MitarbeiterBearbeitenView" style="text;align=left;verticalAlign=top;spacingLeft=4;spacingRight=4;overflow=hidden;rotatable=0;points=[[0,0.5],[1,0.5]];portConstraint=eastwest;rounded=0;shadow=0;html=0;" vertex="1" parent="ZRyV5L0JtbCJQ0honvGS-26">
          <mxGeometry y="52" width="300" height="26" as="geometry" />
        </mxCell>
        <mxCell id="ZRyV5L0JtbCJQ0honvGS-29" value="mitarbeiterAuflistenMenu: MitarbeiterAuflistenMenu" style="text;align=left;verticalAlign=top;spacingLeft=4;spacingRight=4;overflow=hidden;rotatable=0;points=[[0,0.5],[1,0.5]];portConstraint=eastwest;rounded=0;shadow=0;html=0;" vertex="1" parent="ZRyV5L0JtbCJQ0honvGS-26">
          <mxGeometry y="78" width="300" height="26" as="geometry" />
        </mxCell>
        <mxCell id="ZRyV5L0JtbCJQ0honvGS-30" value="" style="line;html=1;strokeWidth=1;align=left;verticalAlign=middle;spacingTop=-1;spacingLeft=3;spacingRight=3;rotatable=0;labelPosition=right;points=[];portConstraint=eastwest;" vertex="1" parent="ZRyV5L0JtbCJQ0honvGS-26">
          <mxGeometry y="104" width="300" height="8" as="geometry" />
        </mxCell>
        <mxCell id="ZRyV5L0JtbCJQ0honvGS-31" value="MitarbeiterAnzeigenView" style="swimlane;fontStyle=2;align=center;verticalAlign=top;childLayout=stackLayout;horizontal=1;startSize=26;horizontalStack=0;resizeParent=1;resizeLast=0;collapsible=1;marginBottom=0;rounded=0;shadow=0;strokeWidth=1;" vertex="1" parent="1">
          <mxGeometry x="1020.5" y="420" width="210" height="60" as="geometry">
            <mxRectangle x="230" y="140" width="160" height="26" as="alternateBounds" />
          </mxGeometry>
        </mxCell>
        <mxCell id="ZRyV5L0JtbCJQ0honvGS-32" value="ausgewaehlterMitarbeiter Mitarbeiter" style="text;align=left;verticalAlign=top;spacingLeft=4;spacingRight=4;overflow=hidden;rotatable=0;points=[[0,0.5],[1,0.5]];portConstraint=eastwest;" vertex="1" parent="ZRyV5L0JtbCJQ0honvGS-31">
          <mxGeometry y="26" width="210" height="26" as="geometry" />
        </mxCell>
        <mxCell id="ZRyV5L0JtbCJQ0honvGS-33" value="" style="line;html=1;strokeWidth=1;align=left;verticalAlign=middle;spacingTop=-1;spacingLeft=3;spacingRight=3;rotatable=0;labelPosition=right;points=[];portConstraint=eastwest;" vertex="1" parent="ZRyV5L0JtbCJQ0honvGS-31">
          <mxGeometry y="52" width="210" height="8" as="geometry" />
        </mxCell>
        <mxCell id="ZRyV5L0JtbCJQ0honvGS-34" value="MitarbeiterBearbeitenView" style="swimlane;fontStyle=2;align=center;verticalAlign=top;childLayout=stackLayout;horizontal=1;startSize=26;horizontalStack=0;resizeParent=1;resizeLast=0;collapsible=1;marginBottom=0;rounded=0;shadow=0;strokeWidth=1;" vertex="1" parent="1">
          <mxGeometry x="260" y="500" width="210" height="60" as="geometry">
            <mxRectangle x="230" y="140" width="160" height="26" as="alternateBounds" />
          </mxGeometry>
        </mxCell>
        <mxCell id="ZRyV5L0JtbCJQ0honvGS-35" value="ausgewaehlterMitarbeiter: Mitarbeiter" style="text;align=left;verticalAlign=top;spacingLeft=4;spacingRight=4;overflow=hidden;rotatable=0;points=[[0,0.5],[1,0.5]];portConstraint=eastwest;" vertex="1" parent="ZRyV5L0JtbCJQ0honvGS-34">
          <mxGeometry y="26" width="210" height="26" as="geometry" />
        </mxCell>
        <mxCell id="ZRyV5L0JtbCJQ0honvGS-36" value="" style="line;html=1;strokeWidth=1;align=left;verticalAlign=middle;spacingTop=-1;spacingLeft=3;spacingRight=3;rotatable=0;labelPosition=right;points=[];portConstraint=eastwest;" vertex="1" parent="ZRyV5L0JtbCJQ0honvGS-34">
          <mxGeometry y="52" width="210" height="8" as="geometry" />
        </mxCell>
        <mxCell id="ZRyV5L0JtbCJQ0honvGS-62" style="edgeStyle=orthogonalEdgeStyle;rounded=0;orthogonalLoop=1;jettySize=auto;html=1;entryX=0.5;entryY=1;entryDx=0;entryDy=0;" edge="1" parent="1" source="ZRyV5L0JtbCJQ0honvGS-37" target="ZRyV5L0JtbCJQ0honvGS-4">
          <mxGeometry relative="1" as="geometry" />
        </mxCell>
        <mxCell id="ZRyV5L0JtbCJQ0honvGS-37" value="MitarbeiterErstellenView" style="swimlane;fontStyle=2;align=center;verticalAlign=top;childLayout=stackLayout;horizontal=1;startSize=26;horizontalStack=0;resizeParent=1;resizeLast=0;collapsible=1;marginBottom=0;rounded=0;shadow=0;strokeWidth=1;" vertex="1" parent="1">
          <mxGeometry x="670" y="890" width="160" height="34" as="geometry">
            <mxRectangle x="230" y="140" width="160" height="26" as="alternateBounds" />
          </mxGeometry>
        </mxCell>
        <mxCell id="ZRyV5L0JtbCJQ0honvGS-38" value="" style="line;html=1;strokeWidth=1;align=left;verticalAlign=middle;spacingTop=-1;spacingLeft=3;spacingRight=3;rotatable=0;labelPosition=right;points=[];portConstraint=eastwest;" vertex="1" parent="ZRyV5L0JtbCJQ0honvGS-37">
          <mxGeometry y="26" width="160" height="8" as="geometry" />
        </mxCell>
        <mxCell id="ZRyV5L0JtbCJQ0honvGS-39" value="MitarbeiterMenuView" style="swimlane;fontStyle=2;align=center;verticalAlign=top;childLayout=stackLayout;horizontal=1;startSize=26;horizontalStack=0;resizeParent=1;resizeLast=0;collapsible=1;marginBottom=0;rounded=0;shadow=0;strokeWidth=1;" vertex="1" parent="1">
          <mxGeometry x="900" y="740" width="220" height="112" as="geometry">
            <mxRectangle x="230" y="140" width="160" height="26" as="alternateBounds" />
          </mxGeometry>
        </mxCell>
        <mxCell id="ZRyV5L0JtbCJQ0honvGS-40" value="auflistenView: MitarbeiterAuflistenView" style="text;align=left;verticalAlign=top;spacingLeft=4;spacingRight=4;overflow=hidden;rotatable=0;points=[[0,0.5],[1,0.5]];portConstraint=eastwest;" vertex="1" parent="ZRyV5L0JtbCJQ0honvGS-39">
          <mxGeometry y="26" width="220" height="26" as="geometry" />
        </mxCell>
        <mxCell id="ZRyV5L0JtbCJQ0honvGS-41" value="erstellenView: MitarbeiterErstellenView" style="text;align=left;verticalAlign=top;spacingLeft=4;spacingRight=4;overflow=hidden;rotatable=0;points=[[0,0.5],[1,0.5]];portConstraint=eastwest;rounded=0;shadow=0;html=0;" vertex="1" parent="ZRyV5L0JtbCJQ0honvGS-39">
          <mxGeometry y="52" width="220" height="26" as="geometry" />
        </mxCell>
        <mxCell id="ZRyV5L0JtbCJQ0honvGS-42" value="menues: MitarbeiterMenues" style="text;align=left;verticalAlign=top;spacingLeft=4;spacingRight=4;overflow=hidden;rotatable=0;points=[[0,0.5],[1,0.5]];portConstraint=eastwest;rounded=0;shadow=0;html=0;" vertex="1" parent="ZRyV5L0JtbCJQ0honvGS-39">
          <mxGeometry y="78" width="220" height="26" as="geometry" />
        </mxCell>
        <mxCell id="ZRyV5L0JtbCJQ0honvGS-43" value="" style="line;html=1;strokeWidth=1;align=left;verticalAlign=middle;spacingTop=-1;spacingLeft=3;spacingRight=3;rotatable=0;labelPosition=right;points=[];portConstraint=eastwest;" vertex="1" parent="ZRyV5L0JtbCJQ0honvGS-39">
          <mxGeometry y="104" width="220" height="8" as="geometry" />
        </mxCell>
        <mxCell id="ZRyV5L0JtbCJQ0honvGS-44" value="HomeView" style="swimlane;fontStyle=2;align=center;verticalAlign=top;childLayout=stackLayout;horizontal=1;startSize=26;horizontalStack=0;resizeParent=1;resizeLast=0;collapsible=1;marginBottom=0;rounded=0;shadow=0;strokeWidth=1;" vertex="1" parent="1">
          <mxGeometry x="1010" y="258" width="240" height="112" as="geometry">
            <mxRectangle x="230" y="140" width="160" height="26" as="alternateBounds" />
          </mxGeometry>
        </mxCell>
        <mxCell id="ZRyV5L0JtbCJQ0honvGS-45" value="loginView: LoginView" style="text;align=left;verticalAlign=top;spacingLeft=4;spacingRight=4;overflow=hidden;rotatable=0;points=[[0,0.5],[1,0.5]];portConstraint=eastwest;" vertex="1" parent="ZRyV5L0JtbCJQ0honvGS-44">
          <mxGeometry y="26" width="240" height="26" as="geometry" />
        </mxCell>
        <mxCell id="ZRyV5L0JtbCJQ0honvGS-46" value="mitarbeiterMenuView: AbteilungMenuView" style="text;align=left;verticalAlign=top;spacingLeft=4;spacingRight=4;overflow=hidden;rotatable=0;points=[[0,0.5],[1,0.5]];portConstraint=eastwest;rounded=0;shadow=0;html=0;" vertex="1" parent="ZRyV5L0JtbCJQ0honvGS-44">
          <mxGeometry y="52" width="240" height="26" as="geometry" />
        </mxCell>
        <mxCell id="ZRyV5L0JtbCJQ0honvGS-47" value="homeMenu: HomeMenu" style="text;align=left;verticalAlign=top;spacingLeft=4;spacingRight=4;overflow=hidden;rotatable=0;points=[[0,0.5],[1,0.5]];portConstraint=eastwest;rounded=0;shadow=0;html=0;" vertex="1" parent="ZRyV5L0JtbCJQ0honvGS-44">
          <mxGeometry y="78" width="240" height="26" as="geometry" />
        </mxCell>
        <mxCell id="ZRyV5L0JtbCJQ0honvGS-48" value="" style="line;html=1;strokeWidth=1;align=left;verticalAlign=middle;spacingTop=-1;spacingLeft=3;spacingRight=3;rotatable=0;labelPosition=right;points=[];portConstraint=eastwest;" vertex="1" parent="ZRyV5L0JtbCJQ0honvGS-44">
          <mxGeometry y="104" width="240" height="8" as="geometry" />
        </mxCell>
        <mxCell id="ZRyV5L0JtbCJQ0honvGS-63" style="edgeStyle=orthogonalEdgeStyle;rounded=0;orthogonalLoop=1;jettySize=auto;html=1;entryX=0.25;entryY=1;entryDx=0;entryDy=0;" edge="1" parent="1" source="ZRyV5L0JtbCJQ0honvGS-49" target="ZRyV5L0JtbCJQ0honvGS-4">
          <mxGeometry relative="1" as="geometry" />
        </mxCell>
        <mxCell id="ZRyV5L0JtbCJQ0honvGS-49" value="LoginView" style="swimlane;fontStyle=2;align=center;verticalAlign=top;childLayout=stackLayout;horizontal=1;startSize=26;horizontalStack=0;resizeParent=1;resizeLast=0;collapsible=1;marginBottom=0;rounded=0;shadow=0;strokeWidth=1;" vertex="1" parent="1">
          <mxGeometry x="470" y="810" width="160" height="34" as="geometry">
            <mxRectangle x="230" y="140" width="160" height="26" as="alternateBounds" />
          </mxGeometry>
        </mxCell>
        <mxCell id="ZRyV5L0JtbCJQ0honvGS-50" value="" style="line;html=1;strokeWidth=1;align=left;verticalAlign=middle;spacingTop=-1;spacingLeft=3;spacingRight=3;rotatable=0;labelPosition=right;points=[];portConstraint=eastwest;" vertex="1" parent="ZRyV5L0JtbCJQ0honvGS-49">
          <mxGeometry y="26" width="160" height="8" as="geometry" />
        </mxCell>
        <mxCell id="ZRyV5L0JtbCJQ0honvGS-52" style="edgeStyle=orthogonalEdgeStyle;rounded=0;orthogonalLoop=1;jettySize=auto;html=1;entryX=0;entryY=-0.154;entryDx=0;entryDy=0;entryPerimeter=0;" edge="1" parent="1" source="ZRyV5L0JtbCJQ0honvGS-35" target="ZRyV5L0JtbCJQ0honvGS-6">
          <mxGeometry relative="1" as="geometry" />
        </mxCell>
        <mxCell id="ZRyV5L0JtbCJQ0honvGS-53" style="edgeStyle=orthogonalEdgeStyle;rounded=0;orthogonalLoop=1;jettySize=auto;html=1;entryX=0;entryY=0.25;entryDx=0;entryDy=0;" edge="1" parent="1" source="ZRyV5L0JtbCJQ0honvGS-27" target="ZRyV5L0JtbCJQ0honvGS-4">
          <mxGeometry relative="1" as="geometry" />
        </mxCell>
        <mxCell id="ZRyV5L0JtbCJQ0honvGS-54" style="edgeStyle=orthogonalEdgeStyle;rounded=0;orthogonalLoop=1;jettySize=auto;html=1;entryX=0.056;entryY=-0.016;entryDx=0;entryDy=0;entryPerimeter=0;" edge="1" parent="1" source="ZRyV5L0JtbCJQ0honvGS-8" target="ZRyV5L0JtbCJQ0honvGS-4">
          <mxGeometry relative="1" as="geometry" />
        </mxCell>
        <mxCell id="ZRyV5L0JtbCJQ0honvGS-57" style="edgeStyle=orthogonalEdgeStyle;rounded=0;orthogonalLoop=1;jettySize=auto;html=1;entryX=0.913;entryY=0.047;entryDx=0;entryDy=0;entryPerimeter=0;" edge="1" parent="1" source="ZRyV5L0JtbCJQ0honvGS-20" target="ZRyV5L0JtbCJQ0honvGS-4">
          <mxGeometry relative="1" as="geometry" />
        </mxCell>
        <mxCell id="ZRyV5L0JtbCJQ0honvGS-58" style="edgeStyle=orthogonalEdgeStyle;rounded=0;orthogonalLoop=1;jettySize=auto;html=1;entryX=1.006;entryY=0.125;entryDx=0;entryDy=0;entryPerimeter=0;" edge="1" parent="1" source="ZRyV5L0JtbCJQ0honvGS-46" target="ZRyV5L0JtbCJQ0honvGS-4">
          <mxGeometry relative="1" as="geometry" />
        </mxCell>
        <mxCell id="ZRyV5L0JtbCJQ0honvGS-59" style="edgeStyle=orthogonalEdgeStyle;rounded=0;orthogonalLoop=1;jettySize=auto;html=1;entryX=1.031;entryY=0.115;entryDx=0;entryDy=0;entryPerimeter=0;" edge="1" parent="1" source="ZRyV5L0JtbCJQ0honvGS-31" target="ZRyV5L0JtbCJQ0honvGS-6">
          <mxGeometry relative="1" as="geometry" />
        </mxCell>
        <mxCell id="ZRyV5L0JtbCJQ0honvGS-60" style="edgeStyle=orthogonalEdgeStyle;rounded=0;orthogonalLoop=1;jettySize=auto;html=1;entryX=1;entryY=1;entryDx=0;entryDy=0;" edge="1" parent="1" source="ZRyV5L0JtbCJQ0honvGS-23" target="ZRyV5L0JtbCJQ0honvGS-4">
          <mxGeometry relative="1" as="geometry" />
        </mxCell>
        <mxCell id="ZRyV5L0JtbCJQ0honvGS-61" style="edgeStyle=orthogonalEdgeStyle;rounded=0;orthogonalLoop=1;jettySize=auto;html=1;entryX=0.875;entryY=1;entryDx=0;entryDy=0;entryPerimeter=0;" edge="1" parent="1" source="ZRyV5L0JtbCJQ0honvGS-40" target="ZRyV5L0JtbCJQ0honvGS-6">
          <mxGeometry relative="1" as="geometry">
            <mxPoint x="810" y="550" as="targetPoint" />
          </mxGeometry>
        </mxCell>
        <mxCell id="ZRyV5L0JtbCJQ0honvGS-65" style="edgeStyle=orthogonalEdgeStyle;rounded=0;orthogonalLoop=1;jettySize=auto;html=1;entryX=0.113;entryY=0.962;entryDx=0;entryDy=0;entryPerimeter=0;" edge="1" parent="1" source="ZRyV5L0JtbCJQ0honvGS-15" target="ZRyV5L0JtbCJQ0honvGS-6">
          <mxGeometry relative="1" as="geometry" />
        </mxCell>
      </root>
    </mxGraphModel>
  </diagram>
</mxfile>
